<svg xmlns="http://www.w3.org/2000/svg" width="57" height="54" viewBox="0 0 57 54">
  <metadata><?xpacket begin="﻿" id="W5M0MpCehiHzreSzNTczkc9d"?>
<x:xmpmeta xmlns:x="adobe:ns:meta/" x:xmptk="Adobe XMP Core 5.6-c138 79.159824, 2016/09/14-01:09:01        ">
   <rdf:RDF xmlns:rdf="http://www.w3.org/1999/02/22-rdf-syntax-ns#">
      <rdf:Description rdf:about=""/>
   </rdf:RDF>
</x:xmpmeta>
                                                                                                    
                                                                                                    
                                                                                                    
                                                                                                    
                                                                                                    
                                                                                                    
                                                                                                    
                                                                                                    
                                                                                                    
                                                                                                    
                                                                                                    
                                                                                                    
                                                                                                    
                                                                                                    
                                                                                                    
                                                                                                    
                                                                                                    
                                                                                                    
                                                                                                    
                                                                                                    
                           
<?xpacket end="w"?></metadata>
<defs>
    <style>
      .cls-1 {
        fill: #ffc222;
        fill-rule: evenodd;
      }
    </style>
  </defs>
  <path class="cls-1" d="M52.076,25.513V24.467h2.031a0.923,0.923,0,0,0,.923-0.923V20.53h1.046A0.923,0.923,0,0,0,57,19.607V16.654a0.923,0.923,0,0,0-.465-0.8L28.958,0.1a0.923,0.923,0,0,0-.916,0L0.465,15.852a0.923,0.923,0,0,0-.465.8v2.953a0.923,0.923,0,0,0,.923.923H1.97v3.015a0.923,0.923,0,0,0,.923.923H4.924v1.046a1.907,1.907,0,0,0,.985,1.668v17.1H2.893a0.923,0.923,0,0,0-.923.923v3.015H0.923A0.923,0.923,0,0,0,0,49.139v3.938A0.923,0.923,0,0,0,.923,54H56.077A0.923,0.923,0,0,0,57,53.077V49.139a0.923,0.923,0,0,0-.923-0.923H55.03V45.2a0.923,0.923,0,0,0-.923-0.923H51.091v-17.1A1.907,1.907,0,0,0,52.076,25.513Zm-1.847,0a0.062,0.062,0,0,1-.062.061h-3.94a0.062,0.062,0,0,1-.062-0.061V24.467h4.063v1.046ZM41.242,44.279v-17.1a1.907,1.907,0,0,0,.985-1.668V24.467H44.32v1.046a1.908,1.908,0,0,0,.985,1.668v17.1H41.242Zm-3.94,0V27.421H39.4V44.279H37.3Zm-5.909,0v-17.1a1.907,1.907,0,0,0,.985-1.668V24.467h2.093v1.046a1.907,1.907,0,0,0,.985,1.668v17.1H31.393Zm-3.94,0V27.421h2.093V44.279H27.454Zm-5.909,0v-17.1a1.907,1.907,0,0,0,.985-1.668V24.467h2.093v1.046a1.907,1.907,0,0,0,.985,1.668v17.1H21.544Zm-3.939,0V27.421H19.7V44.279H17.6Zm-5.909,0v-17.1a1.907,1.907,0,0,0,.985-1.668V24.467h2.093v1.046a1.907,1.907,0,0,0,.985,1.668v17.1H11.7Zm8.987-19.811v1.046a0.062,0.062,0,0,1-.062.061H16.681a0.062,0.062,0,0,1-.062-0.061V24.467h4.063Zm9.849,0v1.046a0.062,0.062,0,0,1-.061.061H26.53a0.062,0.062,0,0,1-.062-0.061V24.467h4.063Zm9.849,0v1.046a0.062,0.062,0,0,1-.061.061h-3.94a0.062,0.062,0,0,1-.062-0.061V24.467H40.38ZM1.847,17.189L28.5,1.966,55.153,17.189v1.5H1.847v-1.5Zm1.97,3.341H53.184v2.092H3.816V20.53Zm7.017,3.938v1.046a0.062,0.062,0,0,1-.062.061H6.833a0.062,0.062,0,0,1-.062-0.061V24.467h4.063ZM7.756,27.421H9.849V44.279H7.756V27.421Zm47.4,24.734H1.847V50.062H55.153v2.092Zm-1.97-3.938H3.816V46.124H53.184v2.092Zm-6.032-3.938V27.421h2.093V44.279H47.151Z"/>
</svg>
