<svg xmlns="http://www.w3.org/2000/svg" width="63" height="54" viewBox="0 0 63 54">
  <defs>
    <style>
      .cls-1 {
        fill: #ffc222;
        fill-rule: evenodd;
      }
    </style>
  </defs>
  <path class="cls-1" d="M59.8,47.591H58.646V46.432a3.2,3.2,0,0,0-3.2-3.2H44.563a3.2,3.2,0,0,0-3.2,3.2v1.159H40.208a3.2,3.2,0,0,0-3.2,3.2v2.182A1.022,1.022,0,0,0,38.031,54H61.979A1.022,1.022,0,0,0,63,52.977V50.8A3.2,3.2,0,0,0,59.8,47.591Zm-16.4-1.159a1.159,1.159,0,0,1,1.157-1.159H55.448A1.159,1.159,0,0,1,56.6,46.432v1.159h-13.2V46.432Zm17.553,5.523H39.052V50.8a1.159,1.159,0,0,1,1.157-1.159H59.8A1.159,1.159,0,0,1,60.959,50.8v1.159ZM39.052,25.573L39,25.621a3.213,3.213,0,0,0,0,4.531,3.193,3.193,0,0,0,4.522,0l6.158-6.171a3.2,3.2,0,1,0-4.522-4.532l-0.048.048-2.367-2.372a2.118,2.118,0,0,0-.535-2.078L35.6,8.426a2.106,2.106,0,0,0-2.074-.535L31.162,5.518,31.21,5.47a3.209,3.209,0,0,0,0-4.532,3.193,3.193,0,0,0-4.522,0L20.53,7.109a3.2,3.2,0,1,0,4.522,4.532l0.048-.048,2.366,2.372a2.127,2.127,0,0,0-.082.584A2.1,2.1,0,0,0,28,16.043l0.273,0.274L26.16,18.437a3.2,3.2,0,0,0-.925,2.47l-24.3,24.35a3.2,3.2,0,1,0,4.522,4.532l24.3-24.35c0.068,0,.136.009,0.2,0.009a3.185,3.185,0,0,0,2.261-.937l2.116-2.12,0.273,0.274a2.1,2.1,0,0,0,2.075.537Zm8.371-5.015a1.159,1.159,0,0,1,.818,1.978l-6.158,6.171a1.158,1.158,0,0,1-1.636-1.639L46.6,20.9A1.15,1.15,0,0,1,47.423,20.558ZM40.5,24.127l-2.18-2.185,3.175-3.181,2.18,2.184ZM21.974,10.195a1.162,1.162,0,0,1,0-1.639l6.158-6.171a1.155,1.155,0,0,1,1.636,0,1.162,1.162,0,0,1,0,1.639l-6.158,6.171A1.157,1.157,0,0,1,21.974,10.195Zm7.745-3.23L31.9,9.149l-3.175,3.182-2.18-2.185ZM4.015,48.342A1.158,1.158,0,0,1,2.38,46.7L26.114,22.918c0.016,0.016.029,0.034,0.046,0.05L27.7,24.512c0.016,0.016.034,0.03,0.051,0.046ZM30.778,23.065a1.156,1.156,0,0,1-1.635,0L27.6,21.523a1.162,1.162,0,0,1,0-1.639l2.116-2.12,3.175,3.182ZM29.445,14.6a0.063,0.063,0,0,1-.02-0.048,0.064,0.064,0,0,1,.02-0.048l4.618-4.628a0.069,0.069,0,0,1,.1,0l6.609,6.623a0.069,0.069,0,0,1,0,.1L36.15,21.219a0.069,0.069,0,0,1-.1,0Z"/>
</svg>
