<svg xmlns="http://www.w3.org/2000/svg" width="47" height="44" viewBox="0 0 47 44">
  <metadata><?xpacket begin="﻿" id="W5M0MpCehiHzreSzNTczkc9d"?>
<x:xmpmeta xmlns:x="adobe:ns:meta/" x:xmptk="Adobe XMP Core 5.6-c138 79.159824, 2016/09/14-01:09:01        ">
   <rdf:RDF xmlns:rdf="http://www.w3.org/1999/02/22-rdf-syntax-ns#">
      <rdf:Description rdf:about=""/>
   </rdf:RDF>
</x:xmpmeta>
                                                                                                    
                                                                                                    
                                                                                                    
                                                                                                    
                                                                                                    
                                                                                                    
                                                                                                    
                                                                                                    
                                                                                                    
                                                                                                    
                                                                                                    
                                                                                                    
                                                                                                    
                                                                                                    
                                                                                                    
                                                                                                    
                                                                                                    
                                                                                                    
                                                                                                    
                                                                                                    
                           
<?xpacket end="w"?></metadata>
<defs>
    <style>
      .cls-1 {
        fill: #ffc222;
        fill-rule: evenodd;
      }
    </style>
  </defs>
  <path class="cls-1" d="M42.99,8.321H31.57V5.93a2.422,2.422,0,0,0,1.483-1.487,2.464,2.464,0,0,0-1.436-3.128A23.774,23.774,0,0,0,23.5,0a23.773,23.773,0,0,0-8.117,1.315,2.464,2.464,0,0,0-1.436,3.128A2.411,2.411,0,0,0,15.43,5.93V8.321H4.01A4.065,4.065,0,0,0,0,12.43V39.891A4.065,4.065,0,0,0,4.01,44H42.99A4.065,4.065,0,0,0,47,39.891V12.43A4.065,4.065,0,0,0,42.99,8.321ZM15.9,2.783A22.274,22.274,0,0,1,23.5,1.56a22.277,22.277,0,0,1,7.6,1.223,0.891,0.891,0,0,1,.52,1.131,0.867,0.867,0,0,1-.812.585,0.845,0.845,0,0,1-.292-0.052A20.874,20.874,0,0,0,23.5,3.328a20.872,20.872,0,0,0-7.017,1.119,0.859,0.859,0,0,1-1.1-.532A0.891,0.891,0,0,1,15.9,2.783Zm1.054,3.148L17,5.915a19.364,19.364,0,0,1,6.5-1.027A19.365,19.365,0,0,1,30,5.915L30.047,5.93V8.321H16.952V5.931Zm-15.43,6.5A2.521,2.521,0,0,1,4.01,9.882H42.99a2.521,2.521,0,0,1,2.487,2.548v7.489a9.107,9.107,0,0,1-8.984,9.206H26.7V28.241A2.418,2.418,0,0,0,24.312,25.8H22.688A2.418,2.418,0,0,0,20.3,28.241v0.884h-9.8a9.107,9.107,0,0,1-8.984-9.206V12.43ZM25.175,29.905a0.874,0.874,0,0,1-.863.884H22.688a0.874,0.874,0,0,1-.863-0.884V28.241a0.875,0.875,0,0,1,.863-0.884h1.624a0.875,0.875,0,0,1,.863.884v1.664Zm-3.35,2.278a2.33,2.33,0,0,0,.863.166h1.624a2.329,2.329,0,0,0,.863-0.166v1.05a0.875,0.875,0,0,1-.863.884H22.688a0.875,0.875,0,0,1-.863-0.884v-1.05Zm23.652,7.707a2.521,2.521,0,0,1-2.487,2.548H4.01a2.521,2.521,0,0,1-2.487-2.548V25.5a10.462,10.462,0,0,0,8.984,5.188h9.8v2.548a2.419,2.419,0,0,0,2.386,2.445h1.624A2.419,2.419,0,0,0,26.7,33.234V30.685h9.8A10.461,10.461,0,0,0,45.477,25.5V39.891Z"/>
</svg>
